<svg width="300" height="200" viewBox="0 0 300 200" fill="none" xmlns="http://www.w3.org/2000/svg">
<path d="M276.015 93.775H14.3176C7.27106 89.1655 5.82256 77.493 9.60156 67.1135C14.7041 53.1 29.3351 41.4415 52.5836 52.7C52.6041 52.71 52.6251 52.7195 52.6456 52.73C47.4301 41.43 63.5601 26.4375 82.0641 27.0075C90.3016 27.2615 99.0101 30.5995 106.514 38.7215C126.622 2.53603 186.068 17.368 204.072 41.234C214.619 35.144 228.872 33.934 240.922 38.466C252.352 42.766 261.793 52.234 264.189 67.6095C264.253 68.0245 264.313 68.444 264.367 68.868C269.591 74.0945 273.759 83.2965 276.015 93.775Z" fill="#A0D5FD"/>
<path d="M264.186 67.61C256.259 72.295 248.7 81.7755 248.7 81.7755C248.7 81.7755 247.538 75.579 240.76 74.1255C233.982 72.672 232.434 80.4035 232.434 80.4035C232.434 80.4035 225.85 68.9955 217.15 70.458C208.45 71.9205 203.585 78.2895 203.585 78.2895C203.585 78.2895 200.681 68.802 191.485 67.9305C182.289 67.059 179.035 73.4495 179.035 73.4495C181.115 58.0615 206.825 58.967 213.462 62.7995C213.462 59.3145 216.851 55.926 222.562 60.476C222.562 54.476 226.17 46.6055 234.955 55.39C234.955 48.2665 237.526 42.705 240.922 38.467C252.35 42.7655 261.79 52.2345 264.186 67.61Z" fill="#6FC0FD"/>
<path d="M185.043 94.3614C185.043 94.3614 201.308 90.15 214.814 89.4239C228.32 88.6979 234.129 89.2784 238.341 89.2784C242.552 89.2784 272.324 80.7104 272.324 80.7104C272.324 80.7104 277.116 94.9424 275.664 94.9424C274.212 94.9424 185.043 94.3614 185.043 94.3614Z" fill="#608010"/>
<path d="M224.594 78.0959C223.565 78.0959 223.37 79.9799 223.37 79.9799C223.37 79.9799 220.136 89.3299 222.4 90.6344C223.074 91.019 223.822 91.2575 224.594 91.3344V94.2844H225.141L224.947 91.3564C226.4 91.4064 227.593 90.8514 227.593 89.9804C227.593 88.6204 225.624 78.0959 224.594 78.0959Z" fill="#9BC231"/>
<path d="M239.555 73.5601C238.238 73.5601 237.988 75.9721 237.988 75.9721C237.988 75.9721 233.848 87.9376 236.747 89.6111C237.607 90.1035 238.561 90.4101 239.547 90.5111C239.604 91.8421 239.718 94.0006 239.861 94.0006H240.173L240.014 90.5431C241.871 90.6076 243.396 89.8961 243.396 88.7821C243.394 87.0331 240.873 73.5601 239.555 73.5601Z" fill="#779918"/>
<path d="M258.276 88.0875C258.276 89.2005 256.754 89.9115 254.901 89.849C254.824 89.846 254.748 89.8425 254.67 89.837L254.678 89.987L254.693 90.2525L254.898 94.0755L254.482 94.0205C254.207 93.983 254.236 91.7355 254.287 90.2285C254.287 90.1945 254.287 90.162 254.29 90.1285C254.294 90.0145 254.298 89.9055 254.302 89.803C253.361 89.6906 252.452 89.3902 251.629 88.9195C248.729 87.2455 252.87 75.2805 252.87 75.2805C252.87 75.2805 253.058 73.469 253.965 72.986C254.111 72.9082 254.273 72.8678 254.437 72.8685C255.755 72.868 258.276 86.3405 258.276 88.0875Z" fill="#9BC231"/>
<path d="M14.3175 93.7755C14.09 95.2311 13.9775 96.7023 13.981 98.1755C-0.254537 112.411 12.4705 147.602 36.591 145.489C39.6565 158.977 52.1475 167.302 66.341 161.594C81.0785 181.14 121.571 184.161 150.536 171.448C180.204 196.152 250.892 180.922 262.652 148.548C277.721 137.795 280.264 113.516 276.013 93.7705L14.3175 93.7755Z" fill="#93C74B"/>
<path d="M122.575 93.775H14.3175C12.2075 92.3955 10.5995 90.382 9.48404 87.9595C6.87204 82.292 6.95354 74.3855 9.60154 67.1135C19.8295 66.629 43.4935 67.7635 54.785 86.9785C54.846 87.083 54.9075 87.188 54.9685 87.294C55.1432 87.194 55.3172 87.094 55.4905 86.994C71.8905 77.7675 85.4335 81.5825 89.2055 91.067C98.809 81.4665 122.575 93.775 122.575 93.775Z" fill="#6ABEFD"/>
<path d="M23.9229 64.2655C22.6049 64.2655 22.3554 66.6775 22.3554 66.6775C22.3554 66.6775 18.2154 78.643 21.1144 80.3165C21.9771 80.8102 22.934 81.1168 23.9229 81.2165V84.996H24.6229L24.3759 81.246C26.2349 81.312 27.7624 80.5995 27.7624 79.485C27.7614 77.7385 25.2404 64.2655 23.9229 64.2655Z" fill="#9BC231"/>
<path d="M67.1741 78.29C66.2311 78.29 66.0526 80.016 66.0526 80.016C66.0526 80.016 63.0891 88.581 65.1641 89.7785C65.7816 90.1316 66.4664 90.3509 67.1741 90.422V93.127H67.6741L67.4971 90.444C68.8281 90.4915 69.9216 89.9815 69.9216 89.1835C69.9221 87.9335 68.1176 78.29 67.1741 78.29Z" fill="#9BC231"/>
<path d="M37.3705 73.6425C36.595 73.6425 36.448 75.062 36.448 75.062C36.448 75.062 34.011 82.1045 35.7175 83.0895C36.2235 83.379 36.7846 83.559 37.3645 83.618C37.3975 84.401 37.4645 85.6715 37.5495 85.6715H37.733L37.639 83.6365C38.732 83.675 39.6295 83.2555 39.6295 82.6C39.6295 81.572 38.146 73.6425 37.3705 73.6425Z" fill="#779918"/>
<path d="M48.4866 82.9045C48.4866 83.865 47.1731 84.4786 45.5731 84.4251C45.5076 84.4251 45.4411 84.4196 45.3731 84.4151L45.3801 84.5425L45.3921 84.772L45.5701 88.072L45.2106 88.022C44.9726 87.9895 44.9981 86.0496 45.0421 84.7495C45.0421 84.72 45.0421 84.6921 45.0421 84.6636C45.0456 84.5636 45.0496 84.4716 45.0531 84.3831C44.2423 84.2859 43.4592 84.0273 42.7501 83.6225C40.2501 82.178 43.8211 71.8501 43.8211 71.8501C43.8211 71.8501 43.9826 70.2866 44.7661 69.8701C44.8914 69.8032 45.0315 69.7688 45.1736 69.7701C46.3111 69.7701 48.4866 81.4 48.4866 82.9045Z" fill="#9BC231"/>
<path d="M85.1384 93.775H14.3174C12.2074 92.3955 10.5994 90.382 9.48389 87.9595C15.5249 86.094 27.4534 83.2055 38.4129 85.2595C44.3784 86.378 48.9774 87.1095 52.6064 90.317C56.5664 94.1195 72.2499 93.103 85.1384 93.775Z" fill="#608010"/>
<path d="M119.159 88.1655C119.159 79.8385 110.639 76.16 104.056 78.2895C104.056 69.77 90.1136 68.027 85.4661 74.2235C82.1746 65.8975 74.2356 66.2845 62.0361 69.77C60.8101 62.5535 56.9476 56.9235 52.5861 52.7005C52.6066 52.7105 52.6276 52.72 52.6481 52.7305C47.4326 41.4305 63.5626 26.438 82.0666 27.008C83.8071 29.7615 84.8771 33.9335 82.5446 39.7905C90.8516 39.7905 98.2486 48.8575 94.9571 59.8945C99.3256 57.3725 112.965 59.8945 111.222 71.706C120.708 73.0615 122.378 82.937 119.159 88.1655Z" fill="#D7EDFD"/>
<path d="M196.855 21.216C196.855 22.0875 204.552 35.884 215.879 31.0915C227.207 26.299 196.855 6.98403 196.855 21.216Z" fill="#7FC7FD"/>
<path d="M227.715 31.4935C229.761 31.4935 231.419 29.8354 231.419 27.79C231.419 25.7447 229.761 24.0865 227.715 24.0865C225.67 24.0865 224.012 25.7447 224.012 27.79C224.012 29.8354 225.67 31.4935 227.715 31.4935Z" fill="#7FC7FD"/>
<path d="M265.184 58.975C265.184 58.975 263.584 63.6945 268.669 68.775C273.754 73.8555 279.076 67.975 276.015 63.2565C272.953 58.538 265.91 53.8195 265.184 58.975Z" fill="#7FC7FD"/>
<path d="M282.297 67.543C283.847 67.543 285.104 66.286 285.104 64.7355C285.104 63.1849 283.847 61.928 282.297 61.928C280.746 61.928 279.489 63.1849 279.489 64.7355C279.489 66.286 280.746 67.543 282.297 67.543Z" fill="#7FC7FD"/>
<path d="M33.3301 32.4C33.3301 32.4 35.9441 46.7775 46.1101 39.2255C56.2761 31.6735 52.9356 21.7985 44.8031 23.541C36.6706 25.2835 33.3301 25.4275 33.3301 32.4Z" fill="#D2EBFD"/>
<path d="M60.5069 23.3375C61.6943 23.3375 62.6569 22.3749 62.6569 21.1875C62.6569 20.0001 61.6943 19.0375 60.5069 19.0375C59.3195 19.0375 58.3569 20.0001 58.3569 21.1875C58.3569 22.3749 59.3195 23.3375 60.5069 23.3375Z" fill="#D2EBFD"/>
<path d="M255.3 160.26L26.0679 93.7755H17.2439L250.209 165.028C252.015 163.56 253.716 161.966 255.3 160.26Z" fill="#BCD845"/>
<path d="M225.955 177.952L13.1835 99.0315C12.6297 99.6628 12.1196 100.331 11.6565 101.031L205.541 182.737C212.536 181.794 219.455 180.173 225.955 177.952Z" fill="#BCD845"/>
<path d="M10.2325 103.579C9.35647 105.455 8.75097 107.486 8.39697 109.608L108.15 179C119.663 179.542 131.847 177.979 142.937 174.35L10.2325 103.579Z" fill="#BCD845"/>
<path d="M266.96 144.773C268.315 143.319 269.534 141.743 270.6 140.065C215.85 128.689 83.5259 101.538 45.6794 93.7755H39.2024L266.96 144.773Z" fill="#BCD845"/>
<path d="M184.747 93.7755L276.98 99.115C276.868 98.3533 276.746 97.5962 276.614 96.8435L196.856 93.7755H184.747Z" fill="#BCD845"/>
<path d="M276.04 126.95C276.623 124.562 277.061 122.141 277.35 119.7L85.1386 93.7755H72.7241L276.04 126.95Z" fill="#BCD845"/>
<path d="M277.85 109.594C277.81 107.399 277.679 105.202 277.463 103.025L144.394 93.775H109.513L277.85 109.594Z" fill="#BCD845"/>
<path d="M27.7999 93.72C27.7999 93.72 119.595 118.808 122.354 119.97C125.114 121.132 175.071 133.476 178.847 135.364C182.623 137.252 209.925 143.932 212.247 143.932C214.569 143.932 219.944 146.401 222.847 148.582C225.75 150.763 239.547 152.939 241.581 152.939C243.615 152.939 245.648 154.246 246.664 155.553C247.681 156.86 256.685 155.698 257.12 157.15C257.556 158.602 255.3 160.26 255.3 160.26L27.7629 94.168C27.6419 94.035 27.7999 93.72 27.7999 93.72ZM10.2324 103.579L140.023 175.35C140.023 175.35 142.637 174.963 144.573 173.85C144.863 171.963 10.6259 102.98 10.6259 102.98L10.2324 103.579ZM13.1824 99.0315L225.982 177.915C225.982 177.915 232.727 176.465 232.582 175.446C232.438 174.427 13.6034 98.6215 13.6034 98.6215L13.1824 99.0315ZM47.6094 94.265L113.736 107.819C113.736 107.819 222.365 130.378 222.365 130.087C222.365 129.797 219.751 128.637 218.202 128.345C216.653 128.052 198.645 123.795 195.062 123.31C191.48 122.826 158.369 116.533 156.335 115.565C154.302 114.596 121.481 108.11 118.48 107.626C115.478 107.142 48.5299 93.684 48.5299 93.684L46.9799 93.5145L47.6094 94.265ZM75.8804 94.41L196.708 113.725C196.708 113.725 180.83 110.434 178.7 109.853C176.57 109.272 123.127 101.139 121.578 100.558C120.028 99.977 75.0734 93.684 75.0734 93.684L72.9114 93.7805L75.8804 94.41Z" fill="#19767B"/>
<path d="M124.05 76.4H120.662L123.181 67.111C123.347 66.4978 123.711 65.9565 124.215 65.5706C124.72 65.1846 125.337 64.9755 125.973 64.9755H129.523L124.05 76.4Z" fill="#6B1E31"/>
<path d="M25.9236 90.295L19.0496 101.913L33.6496 102.313L25.9236 90.295Z" fill="#D2EBFD"/>
<path d="M46.937 91.4365L40.8335 101.753L53.7965 102.108L46.937 91.4365Z" fill="#D2EBFD"/>
<path d="M70.4744 91.498L65.2329 100.356L76.3654 100.661L70.4744 91.498Z" fill="#D2EBFD"/>
<path d="M91.9706 91.395L87.1616 99.5225L97.3751 99.802L91.9706 91.395Z" fill="#D2EBFD"/>
<path d="M159.676 90.933L154.338 99.954L165.674 100.264L159.676 90.933Z" fill="#D2EBFD"/>
<path d="M175.992 91.819L171.253 99.829L181.318 100.104L175.992 91.819Z" fill="#D2EBFD"/>
<path d="M194.268 91.867L190.198 98.7455L198.842 98.982L194.268 91.867Z" fill="#D2EBFD"/>
<path d="M210.959 91.787L207.225 98.0975L215.155 98.315L210.959 91.787Z" fill="#D2EBFD"/>
<path d="M111.079 91.395L107.017 98.26L115.643 98.496L111.079 91.395Z" fill="#D2EBFD"/>
<path d="M203.478 90.2371V87.1666L169.505 80.0196L169.31 80.9501L173.019 81.7301L172.774 89.9611L115.316 89.4446L115.636 79.8036L128.114 78.5371L128.018 77.5916L49.5416 85.5556L47.7356 88.8371L23.3096 88.6176V91.2316L217.187 92.5386V90.3601L203.478 90.2371ZM50.1336 86.4501L71.0501 84.3281V89.0466L48.8141 88.8466L50.1336 86.4501ZM72.0001 89.0501V84.2306L93.5111 82.0501V89.2501L71.5296 89.0501H72.0001ZM94.4596 81.9501L104.45 80.9361V89.3441L94.4596 89.2546V81.9501ZM105.4 80.8421L114.682 79.9001L114.365 89.4356L105.4 89.3556V80.8421ZM173.962 81.9291L177.837 82.7441V90.0066L173.723 89.9696L173.962 81.9291ZM178.788 82.9441L183.453 83.9256V90.0571L178.788 90.0151V82.9441ZM184.403 84.1256L197.192 86.8161V90.1806L184.403 90.0656V84.1256ZM198.143 87.0161L202.526 87.9381V90.2286L198.143 90.1891V87.0161Z" fill="#0B3336"/>
<path d="M170.884 87.305C170.884 95.0795 168.784 101.382 166.19 101.382C163.597 101.382 161.497 95.0815 161.497 87.305C161.497 81.0315 159.606 75.2075 161.497 73.3895C161.947 72.9545 165.69 73.229 166.19 73.229C168.783 73.229 170.884 79.531 170.884 87.305Z" fill="#0B3336"/>
<path d="M166.005 87.6895C166.005 93.6125 167.987 99.314 166.37 101.485C165.83 102.209 162.12 101.989 161.497 101.989C159.007 101.989 156.99 95.589 156.99 87.689C156.99 79.789 159.007 73.389 161.497 73.389C163.986 73.389 166.005 79.7915 166.005 87.6895Z" fill="#0B3336"/>
<path d="M161.521 97.243C162.919 97.243 164.053 93.2382 164.053 88.298C164.053 83.3578 162.919 79.353 161.521 79.353C160.122 79.353 158.988 83.3578 158.988 88.298C158.988 93.2382 160.122 97.243 161.521 97.243Z" fill="#A8908E"/>
<path d="M161.521 93.935C162.402 93.935 163.117 91.4112 163.117 88.298C163.117 85.1848 162.402 82.661 161.521 82.661C160.639 82.661 159.925 85.1848 159.925 88.298C159.925 91.4112 160.639 93.935 161.521 93.935Z" fill="#E3D4D3"/>
<path d="M175.713 105.664C178.109 105.664 180.051 100.959 180.051 95.1555C180.051 89.3515 178.109 84.6465 175.713 84.6465C173.318 84.6465 171.376 89.3515 171.376 95.1555C171.376 100.959 173.318 105.664 175.713 105.664Z" fill="#0B3336"/>
<path d="M184.746 94.709C184.746 100.512 182.724 105.217 180.23 105.217C179.69 105.217 176.53 106.038 176.05 105.633C174.313 104.169 175.713 99.2555 175.713 94.709C175.713 89.959 173.856 85.9505 175.713 84.6465C176.127 84.3565 179.776 84.2 180.23 84.2C182.724 84.2 184.746 88.905 184.746 94.709Z" fill="#0B3336"/>
<path d="M175.736 102.176C177.082 102.176 178.173 99.2329 178.173 95.6025C178.173 91.9721 177.082 89.029 175.736 89.029C174.39 89.029 173.299 91.9721 173.299 95.6025C173.299 99.2329 174.39 102.176 175.736 102.176Z" fill="#A8908E"/>
<path d="M155.468 98.607L176.163 97.2275C176.163 97.2275 176.778 96.7475 176.163 96.1325C175.549 95.5175 154.609 97.37 154.609 97.37L155.468 98.607Z" fill="#594D4C"/>
<path d="M157.644 88.2545C157.644 88.2545 158.244 90.5665 158.647 93.2095C158.969 95.3365 159.162 97.678 158.806 99.2H173.3V92.447L171.763 90.91L170.863 87.219L157.644 88.2545Z" fill="#6B1E31"/>
<path d="M154.9 87.582L156.136 93.8265C156.136 93.8265 160.401 95.1555 160.764 95.1555C161.127 95.1555 160.402 88.038 160.402 88.038L154.9 87.582Z" fill="#6B1E31"/>
<path d="M160.766 72.3521L159.895 88.2545L172.457 87.6735L170.279 72.3521H160.766Z" fill="#FE4775"/>
<path d="M141.306 71.4805L143.874 88.2545H157.644V75.1485L147.833 71.244L141.306 71.4805Z" fill="#6B1E31"/>
<path d="M136.27 94.19H146.735V85.2205L132.827 83.54L136.27 94.19Z" fill="#061D1F"/>
<path d="M165.607 69.2109L168.535 71.2439L170.862 86.2989C170.862 86.2989 168.297 87.7029 168.297 87.2189C168.297 86.7349 165.607 69.2109 165.607 69.2109Z" fill="#FE4775"/>
<path d="M125.259 70.6095L131.721 50.9556C131.721 50.9556 132.229 49.3096 134.069 48.8901C135.908 48.4706 145.397 46.5001 145.397 46.5001C145.397 46.5001 148.737 46.0641 151.883 46.5001C155.03 46.9361 164.033 46.7901 164.663 50.5661C165.293 54.3421 166.176 71.6 166.176 71.6L142.153 72.35L145.166 89.6805L130.39 86.7276L125.259 70.6095Z" fill="#FE4775"/>
<path d="M164.228 69.2534L157.018 69.4274L147.833 69.6494L142.153 69.7864L142.22 66.0979V66.0974L142.282 62.6704V62.6699L142.492 50.9554H162.582L163.357 59.5664L164.228 69.2534Z" fill="#235D8A"/>
<path d="M151.251 50.9554L142.22 66.0974L142.281 62.6704V62.6699L148.423 50.9554H151.251Z" fill="#70ACDB"/>
<path d="M163.357 59.5664L157.018 69.4274L147.833 69.6494L159.939 50.9554H162.582L163.357 59.5664Z" fill="#70ACDB"/>
<path d="M140.604 50.9554L140.536 53.0154L140.414 56.7364L139.975 70.0764L135.253 69.9704L133.569 69.9324L130.09 69.8544L128.387 69.8164L127.05 69.7864L132.793 52.1029L135.867 51.6514L137.268 51.4454L140.604 50.9554Z" fill="#235D8A"/>
<path d="M166.497 58.0766C166.497 58.0766 166.584 62.1846 166.763 62.2886C166.942 62.3926 168.07 62.2886 168.07 62.2886C168.07 62.2886 167.913 57.8831 167.743 57.8831C167.574 57.8831 166.497 58.0766 166.497 58.0766Z" fill="#0B3336"/>
<path d="M151.971 63.2V49.358C151.971 49.358 152.917 48.898 153.061 49.358C153.205 49.818 153.19 63.198 153.19 63.198C153.19 63.198 152.282 63.6675 151.971 63.2Z" fill="#0B3336"/>
<path d="M124.129 72.804L121.418 85.7775L126.258 86.0355C126.258 86.0355 132.339 74.1915 132.339 73.998C132.339 73.8045 131.067 71.9325 131.067 71.9325L124.129 72.804Z" fill="#451320"/>
<path d="M139.3 89.368C139.3 98.2005 136.913 105.361 133.968 105.361C131.023 105.361 128.635 98.2005 128.635 89.368C128.635 82.2405 126.485 75.6235 128.635 73.5575C129.149 73.0635 133.399 73.3755 133.968 73.3755C136.912 73.3755 139.3 80.5355 139.3 89.368Z" fill="#0B3336"/>
<path d="M133.755 89.8045C133.755 96.534 136.008 103.011 134.17 105.478C133.557 106.3 129.341 106.051 128.634 106.051C125.806 106.051 123.513 98.777 123.513 89.8045C123.513 80.832 125.806 73.5575 128.634 73.5575C131.463 73.5575 133.755 80.8315 133.755 89.8045Z" fill="#0B3336"/>
<path d="M128.661 100.658C130.25 100.658 131.538 96.1081 131.538 90.4955C131.538 84.8829 130.25 80.333 128.661 80.333C127.072 80.333 125.783 84.8829 125.783 90.4955C125.783 96.1081 127.072 100.658 128.661 100.658Z" fill="#A8908E"/>
<path d="M128.661 96.8996C129.662 96.8996 130.474 94.0324 130.474 90.4956C130.474 86.9587 129.662 84.0916 128.661 84.0916C127.66 84.0916 126.848 86.9587 126.848 90.4956C126.848 94.0324 127.66 96.8996 128.661 96.8996Z" fill="#E3D4D3"/>
<path d="M129.938 72.6745L133.036 78.516L138.683 78.3225L135.392 71.4805H124.58L124.128 72.804L129.938 72.6745Z" fill="#FEAAC0"/>
<path d="M162.722 73.675L163.124 81.517L162.371 81.6115L162.264 73.5625L162.722 73.675Z" fill="#023240"/>
<path d="M163.595 73.5625L163.891 81.57L164.635 81.4765L164.051 73.6745L163.595 73.5625Z" fill="#023240"/>
<path d="M164.915 73.5625L165.397 81.5285L166.131 81.436L165.37 73.674L164.915 73.5625Z" fill="#023240"/>
<path d="M166.222 73.5625L166.886 81.488L167.611 81.396L166.675 73.6735L166.222 73.5625Z" fill="#023240"/>
<path d="M167.518 73.5625L168.361 81.4475L169.077 81.356L167.97 73.673L167.518 73.5625Z" fill="#023240"/>
<path d="M168.802 73.5625L169.82 81.408L170.528 81.317L169.252 73.6725L168.802 73.5625Z" fill="#023240"/>
<path d="M148.979 70.6095L148.01 77.7255H155.998L156.611 88.2545H159.894L160.766 72.352L148.979 70.6095Z" fill="#B53353"/>
<path d="M170.279 72.352L160.766 70.6095H148.979L160.766 72.352H170.279Z" fill="#6B1E31"/>
<path d="M151.181 76.9265V62.9125H153.981V77.1605L151.181 76.9265Z" fill="#0B3336"/>
<path d="M137.268 51.4456L130.09 69.8546L128.386 69.8166L135.867 51.6516L137.268 51.4456Z" fill="#1F527A"/>
<path d="M140.536 53.0155L140.414 56.7365L135.253 69.9705L133.569 69.9325L140.536 53.0155Z" fill="#2C74AD"/>
<path d="M147.187 107.69C149.781 107.69 151.883 102.597 151.883 96.3145C151.883 90.0317 149.781 84.9385 147.187 84.9385C144.594 84.9385 142.492 90.0317 142.492 96.3145C142.492 102.597 144.594 107.69 147.187 107.69Z" fill="#0B3336"/>
<path d="M156.966 95.831C156.966 102.114 154.777 107.207 152.076 107.207C151.611 107.207 147.823 107.961 147.397 107.679C145.347 106.322 147.187 101.029 147.187 95.8285C147.187 90.7235 144.987 86.559 146.977 85.1185C147.437 84.7865 151.57 84.4525 152.077 84.4525C154.777 84.455 156.966 89.55 156.966 95.831Z" fill="#0B3336"/>
<path d="M147.211 103.914C148.669 103.914 149.85 100.729 149.85 96.7985C149.85 92.8684 148.669 89.6825 147.211 89.6825C145.754 89.6825 144.573 92.8684 144.573 96.7985C144.573 100.729 145.754 103.914 147.211 103.914Z" fill="#A8908E"/>
<path d="M147.211 99.332C147.73 99.332 148.151 98.1977 148.151 96.7985C148.151 95.3993 147.73 94.265 147.211 94.265C146.693 94.265 146.272 95.3993 146.272 96.7985C146.272 98.1977 146.693 99.332 147.211 99.332Z" fill="#0B3336"/>
<path d="M165.523 63.047C165.523 63.047 167.611 62.187 167.611 62.014C167.611 61.841 167.517 61.046 167.517 61.046L165.147 62.046L165.523 63.047Z" fill="#0B3336"/>
<path d="M151.972 49.358C151.972 49.358 150.336 44.9675 148.979 44.1835L150.044 42.5375C150.044 42.5375 152.971 46.205 153.062 49.358C152.25 50.1675 151.972 49.358 151.972 49.358Z" fill="#0B3336"/>
<path d="M146.607 25.9335C146.096 25.9332 145.588 25.9977 145.094 26.1255C144.407 24.681 143.207 23.5435 141.729 22.9337C140.25 22.3239 138.597 22.2853 137.092 22.8255C137.276 22.3926 137.318 21.9123 137.212 21.454C137.106 20.9957 136.857 20.5829 136.501 20.2752C136.145 19.9675 135.7 19.7808 135.231 19.742C134.763 19.7031 134.293 19.8142 133.892 20.0592C133.49 20.3041 133.177 20.6703 132.996 21.105C132.816 21.5396 132.779 22.0202 132.889 22.4775C133 22.9348 133.253 23.3452 133.612 23.6494C133.971 23.9537 134.417 24.1361 134.886 24.1705C134.172 24.8334 133.618 25.6495 133.265 26.5574C132.912 27.4653 132.77 28.4415 132.848 29.4124C132.927 30.3834 133.225 31.3239 133.719 32.1633C134.213 33.0026 134.892 33.719 135.703 34.2585C134.895 34.9481 134.282 35.8375 133.926 36.8379C133.569 37.8384 133.481 38.9149 133.671 39.96C133.86 41.005 134.32 41.9821 135.006 42.7936C135.691 43.6052 136.577 44.2228 137.575 44.5848C138.574 44.9469 139.65 45.0407 140.696 44.8569C141.742 44.6731 142.721 44.2181 143.537 43.5374C144.352 42.8567 144.975 41.974 145.342 40.9775C145.71 39.981 145.809 38.9055 145.631 37.8585C146.45 37.9935 147.287 37.9573 148.091 37.7523C148.895 37.5472 149.648 37.1778 150.302 36.6672C150.956 36.1566 151.497 35.516 151.891 34.7859C152.285 34.0557 152.523 33.2518 152.591 32.4248C152.659 31.5979 152.554 30.766 152.284 29.9815C152.014 29.197 151.584 28.477 151.022 27.8669C150.46 27.2569 149.777 26.77 149.017 26.437C148.257 26.1041 147.436 25.9323 146.607 25.9325V25.9335Z" fill="#D2EBFD"/>
<path d="M127.858 25.7578C128.825 25.6009 129.482 24.6896 129.325 23.7225C129.168 22.7554 128.257 22.0987 127.289 22.2557C126.322 22.4127 125.666 23.3239 125.823 24.291C125.98 25.2581 126.891 25.9148 127.858 25.7578Z" fill="#D2EBFD"/>
<path d="M138.197 17.176C139.489 17.176 140.535 16.1292 140.535 14.838C140.535 13.5468 139.489 12.5 138.197 12.5C136.906 12.5 135.859 13.5468 135.859 14.838C135.859 16.1292 136.906 17.176 138.197 17.176Z" fill="#D2EBFD"/>
<path d="M149.846 42.8426C149.846 42.8426 148.639 37.8761 149.559 35.4871C142.443 37.1161 142.718 38.2291 142.718 38.2291L142.927 41.7631C142.927 41.7631 148.596 42.2201 149.277 43.7241C150.092 43.4091 149.846 42.8426 149.846 42.8426Z" fill="#D2EBFD"/>
<path d="M164.914 91.4125H161.347V98.705H164.914V91.4125Z" fill="#061D1F"/>
<path d="M170.586 91.4125H167.018V98.705H170.586V91.4125Z" fill="#061D1F"/>
<path d="M162.267 82.421V85.979L165.607 85.761L165.471 82.4235L162.267 82.421Z" fill="#FDE81D"/>
<path d="M167.438 82.276L167.648 86.084L170.862 85.904L170.359 82.276H167.438Z" fill="#FDE81D"/>
<path d="M151.555 76.958C151.555 76.958 151.3 79.191 152.412 80.303C153.524 81.415 155.595 80.9905 155.595 80.9905L155.337 79.014C155.337 79.014 153.191 78.814 153.191 77.0945C152.643 77.0888 152.096 77.0432 151.555 76.958Z" fill="white"/>
<path d="M140.846 84.8564H144.573V86.3139L140.846 86.5074V84.8564Z" fill="white"/>
<path d="M141.076 82.276H144.803V83.7335L141.076 83.927V82.276Z" fill="white"/>
<path d="M148.994 45.781H146.283C145.792 45.781 145.395 46.1784 145.395 46.6685V47.9595C145.395 48.4497 145.792 48.847 146.283 48.847H148.994C149.484 48.847 149.881 48.4497 149.881 47.9595V46.6685C149.881 46.1784 149.484 45.781 148.994 45.781Z" fill="#0B3336"/>
<path d="M128.178 59.2385H125.467C124.977 59.2385 124.58 59.6359 124.58 60.126V61.417C124.58 61.9072 124.977 62.3045 125.467 62.3045H128.178C128.668 62.3045 129.066 61.9072 129.066 61.417V60.126C129.066 59.6359 128.668 59.2385 128.178 59.2385Z" fill="#0B3336"/>
<path d="M158.999 45.781H156.288C155.798 45.781 155.401 46.1784 155.401 46.6685V47.9595C155.401 48.4497 155.798 48.847 156.288 48.847H158.999C159.49 48.847 159.887 48.4497 159.887 47.9595V46.6685C159.887 46.1784 159.49 45.781 158.999 45.781Z" fill="#0B3336"/>
<path d="M178.985 36.231C178.726 36.631 178.46 37.0385 178.192 37.45C176.735 36.5043 175.036 36.001 173.299 36.001C171.562 36.001 169.862 36.5043 168.406 37.45L167.613 36.231C169.305 35.1316 171.28 34.5465 173.299 34.5465C175.317 34.5465 177.292 35.1316 178.985 36.231Z" fill="white"/>
<path d="M177.4 38.67L176.609 39.8905C175.623 39.2512 174.473 38.911 173.299 38.911C172.124 38.911 170.974 39.2512 169.988 39.8905C169.729 39.4905 169.464 39.082 169.197 38.671C170.418 37.8784 171.843 37.4565 173.299 37.4565C174.754 37.4565 176.179 37.8784 177.4 38.671V38.67Z" fill="white"/>
<path d="M175.819 41.111L175.028 42.332C174.513 41.998 173.913 41.8202 173.299 41.8202C172.685 41.8202 172.085 41.998 171.57 42.332C171.323 41.95 171.058 41.5405 170.779 41.1105C171.529 40.6239 172.405 40.365 173.299 40.365C174.193 40.365 175.068 40.6239 175.819 41.1105V41.111Z" fill="white"/>
<path d="M175.03 45.0064C175.03 45.3067 174.952 45.6018 174.804 45.8628C174.655 46.1238 174.442 46.3417 174.184 46.4951C173.926 46.6485 173.632 46.7321 173.332 46.7378C173.032 46.7435 172.735 46.671 172.471 46.5274C172.208 46.3839 171.986 46.1742 171.828 45.919C171.67 45.6638 171.581 45.3719 171.569 45.0719C171.558 44.7719 171.625 44.4741 171.764 44.2078C171.902 43.9415 172.108 43.7158 172.36 43.5529C172.621 43.3842 172.923 43.289 173.234 43.2773C173.545 43.2657 173.854 43.3381 174.127 43.4868C174.4 43.6355 174.628 43.8552 174.787 44.1226C174.946 44.39 175.03 44.6953 175.03 45.0064Z" fill="white"/>
<path d="M54.1969 113.374L53.4044 114.593C51.9477 113.647 50.248 113.144 48.5112 113.144C46.7744 113.144 45.0747 113.647 43.618 114.593L42.825 113.374C44.5175 112.274 46.4925 111.689 48.5109 111.689C50.5294 111.689 52.5044 112.274 54.1969 113.374Z" fill="white"/>
<path d="M52.6129 115.813L51.8214 117.034C50.8358 116.394 49.6859 116.054 48.5109 116.054C47.3359 116.054 46.1861 116.394 45.2004 117.034C44.9419 116.634 44.6759 116.225 44.4099 115.814C45.6311 115.021 47.0556 114.599 48.5114 114.599C49.9672 114.599 51.3918 115.021 52.6129 115.814V115.813Z" fill="white"/>
<path d="M51.031 118.254C50.753 118.683 50.4875 119.094 50.24 119.475C49.7251 119.141 49.1246 118.963 48.511 118.963C47.8973 118.963 47.2968 119.141 46.782 119.475C46.5355 119.093 46.27 118.683 45.9915 118.253C46.7418 117.766 47.6169 117.508 48.5112 117.508C49.4055 117.508 50.2806 117.766 51.031 118.253V118.254Z" fill="white"/>
<path d="M50.2424 122.15C50.243 122.536 50.115 122.911 49.8786 123.215C49.6423 123.52 49.3111 123.737 48.9374 123.833C48.5637 123.928 48.1689 123.897 47.8153 123.743C47.4617 123.589 47.1695 123.321 46.985 122.983C46.8004 122.644 46.7339 122.253 46.7961 121.873C46.8583 121.492 47.0456 121.143 47.3284 120.881C47.6111 120.618 47.9732 120.458 48.3575 120.424C48.7417 120.391 49.1261 120.487 49.4499 120.696C49.693 120.853 49.8928 121.068 50.0313 121.322C50.1697 121.576 50.2423 121.861 50.2424 122.15Z" fill="white"/>
<path d="M254.678 89.9855L254.693 90.251C254.557 90.2509 254.422 90.2429 254.287 90.227C254.158 90.2075 254.146 90.177 254.29 90.127C254.315 90.1185 254.345 90.11 254.38 90.1005C254.484 90.0729 254.584 90.0343 254.678 89.9855Z" fill="#7FC7FD"/>
<path d="M212.438 59.9245C204.256 54.2395 192.656 54.4745 185.382 61.347C193.432 56.062 204.069 56.0535 212.682 60.088L212.438 59.9245Z" fill="#6FC0FD"/>
<path d="M110.785 62.061C109.207 58.0765 104.95 55.1 100.5 55.9675V55.9705V55.968C101.147 51.993 99.7636 47.1455 96.7241 44.668C99.4866 48.001 99.9646 53.336 98.8866 57.6305L98.8911 57.6345C104.064 56.114 108.071 58.0275 110.884 62.313C110.881 62.315 110.85 62.2265 110.785 62.061Z" fill="#D2EBFD"/>
<path d="M100.499 55.968V55.9675L100.498 55.968H100.499Z" fill="#D2EBFD"/>
<path d="M262.654 148.553C262.654 148.553 225.658 128.441 239.213 99.396C266.709 115.274 275.616 134.637 275.616 134.637C275.616 134.637 267.58 134.831 262.654 148.553Z" fill="#69A31A"/>
<path d="M264.628 133.189C263.856 133.253 264.348 90.5385 286.995 85.724C288.823 116.97 271.45 132.622 264.628 133.189Z" fill="#85B51D"/>
<path d="M284.575 89.1C275.921 100.35 270.565 115.994 266.854 129.412C271.241 118.506 276.321 105.089 281.636 94.412C282.609 92.488 283.717 90.517 284.862 88.7465L284.575 89.1Z" fill="#C4DD5D"/>
<path d="M263.825 144.536C254.434 134.036 245.728 118.036 240.423 104.286C244.59 119.599 253.019 135.356 265.111 145.967C265.111 145.966 264.655 145.45 263.825 144.536Z" fill="#C4DD5D"/>
<path d="M260.803 146.74C260.803 146.74 262.545 122.148 291.397 119.438C299.142 144.029 260.803 146.74 260.803 146.74Z" fill="#588A16"/>
<path d="M289.757 122.443C284.161 131.576 272.728 138.834 263.513 142.625C274.077 140.105 285.65 132.572 289.945 122.15L289.757 122.443Z" fill="#C4DD5D"/>
<path d="M260.163 153.9C238.871 149.586 217.409 136.85 209.504 115.714C209.361 115.3 209.233 114.883 209.109 114.464C208.946 113.83 207.963 114.099 208.127 114.735C208.422 115.8 208.819 116.835 209.239 117.857C213.344 127.6 220.55 135.717 229.052 141.85C230.252 141.957 231.494 142.377 231.613 143.595C234.011 145.147 236.5 146.555 239.065 147.812C239.481 147.707 239.856 147.818 240.205 148.072C241.691 149.372 243.733 149.827 245.515 150.635C247.933 151.574 250.39 152.403 252.885 153.123C253.964 152.74 255.208 152.82 255.727 153.901C257.108 154.258 258.497 154.584 259.893 154.881C260.532 155.016 260.805 154.035 260.163 153.9Z" fill="#69A31A"/>
<path d="M230.694 139.637C231.225 141.211 232.681 142.93 234.3 142.663C236.633 142.213 237.344 139.063 237.163 136.905C237.099 133.495 233.747 129.155 231.039 133.318C230.004 135.112 229.972 137.693 230.694 139.637Z" fill="#69A31A"/>
<path d="M240.985 145.7C241.643 147.926 243.922 149.05 245.753 147.313C247.753 145.403 248.353 142.023 247.135 139.539C245.685 136.77 242.726 137.914 241.535 140.268C240.667 141.829 240.403 144.005 240.985 145.7Z" fill="#69A31A"/>
<path d="M222.691 131.171C222.803 132.9 224.408 135.526 226.218 133.779C227.837 132.074 229.331 127.379 228.993 125.047C228.424 122.312 225.218 124.071 224.223 125.601C223.079 127.061 222.434 129.332 222.691 131.171Z" fill="#69A31A"/>
<path d="M216.289 123.091C217.668 127.629 223.854 122.771 221.979 118.154C220.953 116.318 218.395 117.561 217.396 118.887C216.45 120.039 215.942 121.7 216.289 123.091Z" fill="#69A31A"/>
<path d="M212.25 116.557C214.15 116.868 215.923 114.957 216.256 113.224C216.347 112.608 216.159 112.035 216.143 111.414C216.325 108.714 213.775 108.706 212.151 110.146C210.26 111.609 209.478 115.8 212.25 116.557Z" fill="#69A31A"/>
<path d="M204.918 113.1C207.083 116.005 209.859 113.303 209.771 110.608C209.688 110.121 209.386 109.886 209.084 109.458C208.268 108.214 206.911 106.848 205.406 108.053C203.985 109.153 203.878 111.718 204.918 113.1Z" fill="#69A31A"/>
<path d="M202.661 120.606C203.223 122.591 205.665 123.606 207.561 123.043C208.946 122.677 210.094 121.306 209.417 119.97C208.825 118.933 207.788 118.134 206.752 117.662C204.98 117.7 202.053 118.124 202.661 120.606Z" fill="#69A31A"/>
<path d="M213.139 129.661C214.919 127.703 213.75 125.492 211.324 125.361C210.084 125.275 209.22 125.426 208.498 126.485C208.031 127.015 207.487 127.444 207.166 128.102C206.408 129.602 208.053 130.941 209.469 131.023C210.741 131.2 212.335 130.594 213.139 129.661Z" fill="#69A31A"/>
<path d="M219.314 133.282C217.941 132.655 216.247 132.807 214.858 133.359C212.958 134.114 210.828 136.593 213.358 138.037C214.953 138.982 217.335 138.73 218.855 137.749C220.664 136.7 221.492 134.3 219.314 133.282Z" fill="#69A31A"/>
<path d="M229.162 141.858C227.678 141.726 226.035 141.989 224.612 142.423C222.312 143.049 219.955 144.893 222.752 146.841C228.372 150.121 235.475 142.7 229.162 141.858Z" fill="#69A31A"/>
<path d="M240.205 148.071C239.605 147.637 239.253 147.758 238.625 147.939C238.12 147.877 237.609 147.693 237.104 147.83C236.015 148.173 235.118 149.211 234.772 150.298C233.969 153.491 238.003 154.209 240.003 152.451C240.944 151.698 241.693 150.427 241.395 149.201C241.007 148.813 240.655 148.394 240.205 148.071Z" fill="#69A31A"/>
<path d="M254.994 153.13C252.794 152.194 249.9 154.715 248.884 156.545C246.145 160.868 251.673 161.279 254.093 158.831C255.569 157.557 257 154.423 254.994 153.13Z" fill="#69A31A"/>
<path d="M252.646 151.395C257.763 154.345 259.312 145.271 254.546 143.1C252.164 141.395 250.433 143.628 250.272 146.004C250.043 147.955 251.159 150.487 252.646 151.395Z" fill="#69A31A"/>
<path d="M250.308 165.515C224.691 169.165 195.658 162.826 178.513 142.271C178.342 142.572 178.1 142.825 177.808 143.009C184.828 151.345 194.054 157.705 204.19 161.654C205.097 162.012 206.011 162.351 206.932 162.672C207.35 162.641 207.771 162.669 208.182 162.755C208.76 162.88 209.334 163.141 209.719 163.588C222.238 167.372 235.545 168.335 248.523 166.799C249.204 166.715 249.907 166.646 250.578 166.499C251.223 166.38 250.95 165.4 250.308 165.515Z" fill="#69A31A"/>
<path d="M239.587 167.45C237.923 167.509 236.43 168.92 236.187 170.554C235.882 172.54 237.931 173.654 239.677 173.178C241.545 172.782 243.554 170.659 242.693 168.711C242.12 167.782 240.544 167.465 239.587 167.45Z" fill="#69A31A"/>
<path d="M242.946 163.746C243.002 161.865 243.769 161.801 242.087 160.346C240.549 158.928 238.206 159.231 237.751 161.467C237.228 163.605 239.251 166.491 241.619 165.978C241.89 165.905 242.125 165.8 242.319 165.622C242.71 165.078 243.078 164.44 242.946 163.746Z" fill="#69A31A"/>
<path d="M223.023 162.431C225.951 168.118 230.657 164.618 227.787 159.535C227.2 158.47 226.253 157.766 225.143 157.367C222.322 156.383 222.1 160.712 223.023 162.431Z" fill="#69A31A"/>
<path d="M225.472 166.731C221.86 166.538 218.325 171.21 219.489 174.631C220.909 177.443 224.002 174.228 225.137 172.693C226.31 171.187 228.558 167.329 225.472 166.731Z" fill="#69A31A"/>
<path d="M208.953 153.324C207.87 154.867 207.975 158.054 209.159 159.521C210.259 161.132 212.2 160.952 213.088 159.262C214.044 157.717 213.948 154.8 212.891 153.322C211.893 151.695 209.946 151.643 208.953 153.324Z" fill="#69A31A"/>
<path d="M209.535 163.4C206.81 161.386 202.707 163.743 201.813 166.688C201.445 167.816 201.506 169.314 202.62 169.864C203.809 170.383 205.125 169.632 206.161 169.028C207.582 168.138 211.506 165.132 209.535 163.4Z" fill="#69A31A"/>
<path d="M195.633 155.276L196.686 156.346C196.934 156.036 197.078 155.656 197.096 155.26C197.113 154.864 197.005 154.472 196.786 154.142L197.84 155.212C200.221 153.454 200.135 147.279 196.823 146.731C193.297 147.016 193.05 153.55 195.633 155.276Z" fill="#69A31A"/>
<path d="M192.737 156.8C191.117 154.888 187.745 155.381 186.137 157.077C184.031 159.335 186.087 161.387 188.669 161.29C190.8 161.369 194.307 159.188 192.737 156.8Z" fill="#69A31A"/>
<path d="M185.409 149.245C187.426 150.759 189.664 148.276 189.646 146.22C189.883 143.62 187.146 140.935 185.015 143.41C183.691 145.025 183.719 147.892 185.409 149.245Z" fill="#69A31A"/>
<path d="M183.19 148.886C181.724 147.504 179.234 147.18 177.361 147.749C175.654 148.167 173.741 150.003 175.179 151.63C176.834 153.257 179.993 153.336 182.021 152.646C183.884 152.069 184.832 150.413 183.19 148.886Z" fill="#69A31A"/>
<path d="M178.513 142.272C179.613 140.178 178.471 137.372 176.423 136.329C173.315 134.793 172.146 138.557 173.448 140.882C174.25 142.75 177.162 144.455 178.513 142.272Z" fill="#69A31A"/>
<path d="M252.84 162.884C252.84 162.884 242.819 161.649 244.271 179.222C258.213 190.259 257.705 157.583 257.705 157.583L252.84 162.884Z" fill="#588A16"/>
<path d="M252.994 165.358C252.963 164.505 252.866 163.651 252.67 162.908C252.216 168.147 250.02 173.747 246.812 177.866C250.721 175.308 253.263 170.072 252.994 165.358Z" fill="#C4DD5D"/>
<path d="M257.608 156.615C257.608 156.615 264.675 175.689 286.943 178.109C286.75 161.94 275.809 143.255 260.706 146.256C256.93 151.387 257.608 156.615 257.608 156.615Z" fill="#69A31A"/>
<path d="M286.059 176.56C282.6 163.664 271.856 152.7 258.383 151.677C271.265 154.342 281.268 164.892 286.169 176.947L286.059 176.56Z" fill="#C4DD5D"/>
<path d="M20.2595 117.792C20.2595 117.792 26.7225 119.534 28.683 121.642C31.66 121.932 32.533 123.384 32.8945 124.619C33.256 125.853 35.1445 125.345 36.38 125.853C37.6155 126.362 38.1225 128.249 38.195 128.54C38.2675 128.83 46.255 132.314 47.2 134.056C48.145 135.799 49.45 135.437 50.6855 136.09C51.921 136.744 60.4885 145.021 61.7955 144.876C63.1025 144.73 70.509 149.015 71.0175 150.249C71.526 151.484 82.7805 158.31 85.8305 159.617C88.8805 160.924 90.3305 162.303 90.9135 163.756C91.4965 165.208 96.3595 167.023 97.303 167.606C98.2465 168.188 112.988 176.319 112.988 176.319L117.708 178.933C117.708 178.933 109.635 179.138 108.153 178.999C103.547 175.882 20.2595 117.792 20.2595 117.792Z" fill="#CEED35"/>
<path d="M44.0286 114.403C44.0286 114.403 87.2091 132.387 88.4436 132.968C89.6781 133.549 116.109 144.586 119.522 145.893C122.935 147.2 123.879 147.636 123.879 147.636C123.879 147.636 127.364 149.086 131.939 150.686C136.513 152.286 160.766 164.336 164.252 165.136C167.737 165.936 204.939 182.595 205.778 182.66C206.617 182.724 207.553 182.595 207.553 182.595C207.553 182.595 211.103 182.014 210.587 181.789C210.071 181.563 207.037 181.789 205.391 180.433C203.745 179.078 201.228 177.819 200.228 177.722C199.228 177.625 197.839 177.98 196.742 177.044C195.645 176.108 187.286 173.656 186.542 173.075C185.798 172.494 184.573 171.268 183.412 170.945C182.25 170.622 173.988 167.201 171.406 166.298C168.824 165.394 168.695 165.459 167.727 165.104C166.759 164.749 157.142 161.747 156.496 160.844C155.851 159.94 154.076 159.23 153.753 159.23C153.431 159.23 152.203 159.746 151.72 158.746C151.236 157.745 151.139 157.068 150.494 156.971C149.848 156.874 150.59 157.649 148.46 156.906C146.33 156.164 138.876 152.582 137.617 151.906C136.358 151.231 115.454 143.281 115.454 143.281C115.454 143.281 46.8846 114.645 44.0286 114.403Z" fill="#CEED35"/>
<path opacity="0.4" d="M151.552 117.8H66.9174C61.2808 117.8 56.7114 122.37 56.7114 128.006V177.294C56.7114 182.931 61.2808 187.5 66.9174 187.5H151.552C157.189 187.5 161.758 182.931 161.758 177.294V128.006C161.758 122.37 157.189 117.8 151.552 117.8Z" fill="#A0D5FD"/>
<path opacity="0.8" d="M158.165 177.294V128.007C158.165 124.355 155.204 121.395 151.553 121.395H66.9175C63.2658 121.395 60.3055 124.355 60.3055 128.007V177.294C60.3055 180.946 63.2658 183.906 66.9175 183.906H151.553C155.204 183.906 158.165 180.946 158.165 177.294Z" fill="white"/>
<path d="M91.8565 127.691C91.6708 127.691 91.4928 127.765 91.3615 127.896C91.2302 128.027 91.1565 128.205 91.1565 128.391C91.1565 128.577 91.2302 128.755 91.3615 128.886C91.4928 129.017 91.6708 129.091 91.8565 129.091H98.691V127.687L91.8565 127.691Z" fill="#93C74B"/>
<path opacity="0.4" d="M104.587 127.691H98.6909V129.095H104.587C104.773 129.095 104.951 129.022 105.082 128.89C105.214 128.759 105.287 128.581 105.287 128.395C105.288 128.303 105.27 128.212 105.235 128.126C105.201 128.041 105.149 127.963 105.084 127.898C105.019 127.832 104.942 127.78 104.856 127.745C104.771 127.709 104.68 127.691 104.587 127.691Z" fill="#A0D5FD"/>
<path d="M91.8565 130.968C91.6708 130.968 91.4928 131.041 91.3615 131.173C91.2302 131.304 91.1565 131.482 91.1565 131.668C91.1562 131.76 91.174 131.851 91.2091 131.936C91.2441 132.021 91.2956 132.099 91.3606 132.164C91.4257 132.229 91.503 132.281 91.588 132.316C91.6731 132.352 91.7644 132.37 91.8565 132.37H101.674V130.966L91.8565 130.968Z" fill="#93C74B"/>
<path opacity="0.4" d="M104.588 130.968H101.675V132.372H104.588C104.68 132.372 104.771 132.354 104.856 132.319C104.941 132.283 105.018 132.231 105.083 132.166C105.148 132.101 105.2 132.023 105.235 131.938C105.27 131.853 105.288 131.762 105.288 131.67C105.288 131.577 105.27 131.486 105.235 131.401C105.2 131.316 105.148 131.238 105.083 131.173C105.018 131.108 104.941 131.056 104.856 131.021C104.771 130.986 104.68 130.968 104.588 130.968Z" fill="#A0D5FD"/>
<path opacity="0.4" d="M104.588 134.244H97.4875V135.65H104.588C104.773 135.65 104.951 135.576 105.083 135.445C105.214 135.314 105.288 135.136 105.288 134.95C105.288 134.858 105.271 134.766 105.236 134.68C105.201 134.594 105.15 134.517 105.085 134.451C105.02 134.385 104.942 134.333 104.857 134.297C104.772 134.262 104.68 134.244 104.588 134.244Z" fill="#A0D5FD"/>
<path d="M91.8565 134.244C91.7644 134.244 91.6731 134.262 91.588 134.297C91.503 134.332 91.4257 134.384 91.3606 134.449C91.2956 134.515 91.2441 134.592 91.2091 134.677C91.174 134.763 91.1562 134.854 91.1565 134.946C91.1565 135.132 91.2302 135.31 91.3615 135.441C91.4928 135.572 91.6708 135.646 91.8565 135.646H97.4855V134.242L91.8565 134.244Z" fill="#93C74B"/>
<path d="M67.3781 172.615C67.2965 172.614 67.2156 172.63 67.1402 172.662C67.0647 172.693 66.9962 172.739 66.9385 172.796C66.8808 172.854 66.835 172.923 66.8038 172.998C66.7726 173.074 66.7565 173.154 66.7566 173.236C66.7565 173.318 66.7726 173.398 66.8038 173.474C66.835 173.549 66.8808 173.618 66.9385 173.676C66.9962 173.733 67.0647 173.779 67.1402 173.81C67.2156 173.842 67.2965 173.858 67.3781 173.857H76.1076V172.615H67.3781Z" fill="#93C74B"/>
<path opacity="0.4" d="M78.6499 172.615H76.1089V173.857H78.6499C78.7315 173.857 78.8123 173.841 78.8877 173.81C78.9631 173.779 79.0316 173.733 79.0893 173.675C79.1471 173.618 79.1928 173.549 79.2241 173.474C79.2553 173.398 79.2714 173.318 79.2714 173.236C79.2714 173.154 79.2553 173.074 79.2241 172.998C79.1928 172.923 79.1471 172.854 79.0893 172.797C79.0316 172.739 78.9631 172.693 78.8877 172.662C78.8123 172.631 78.7315 172.615 78.6499 172.615Z" fill="#A0D5FD"/>
<path d="M67.3781 175.515C67.2965 175.515 67.2156 175.531 67.1402 175.562C67.0647 175.593 66.9962 175.639 66.9385 175.697C66.8808 175.755 66.835 175.823 66.8038 175.899C66.7726 175.974 66.7565 176.055 66.7566 176.137C66.7565 176.218 66.7726 176.299 66.8038 176.374C66.835 176.45 66.8808 176.518 66.9385 176.576C66.9962 176.634 67.0647 176.68 67.1402 176.711C67.2156 176.742 67.2965 176.758 67.3781 176.758H74.2031V175.515H67.3781Z" fill="#93C74B"/>
<path opacity="0.4" d="M78.6501 175.515H74.2046V176.758H78.6501C78.8149 176.758 78.973 176.693 79.0896 176.576C79.2061 176.459 79.2716 176.301 79.2716 176.137C79.2716 176.055 79.2555 175.974 79.2243 175.899C79.193 175.823 79.1473 175.755 79.0896 175.697C79.0318 175.639 78.9633 175.594 78.8879 175.562C78.8125 175.531 78.7317 175.515 78.6501 175.515Z" fill="#A0D5FD"/>
<path opacity="0.4" d="M78.6501 178.416H76.8191V179.659H78.6501C78.8149 179.659 78.973 179.593 79.0896 179.476C79.2061 179.36 79.2716 179.202 79.2716 179.037C79.2716 178.955 79.2555 178.875 79.2243 178.799C79.193 178.724 79.1473 178.655 79.0896 178.598C79.0318 178.54 78.9633 178.494 78.8879 178.463C78.8125 178.432 78.7317 178.416 78.6501 178.416Z" fill="#A0D5FD"/>
<path d="M67.3781 178.416C67.2965 178.415 67.2156 178.431 67.1402 178.463C67.0647 178.494 66.9962 178.54 66.9385 178.597C66.8808 178.655 66.835 178.724 66.8038 178.799C66.7726 178.875 66.7565 178.955 66.7566 179.037C66.7565 179.119 66.7726 179.2 66.8038 179.275C66.835 179.35 66.8808 179.419 66.9385 179.477C66.9962 179.534 67.0647 179.58 67.1402 179.611C67.2156 179.643 67.2965 179.659 67.3781 179.659H76.8176V178.416H67.3781Z" fill="#93C74B"/>
<path d="M90.9999 172.615C90.9183 172.614 90.8374 172.63 90.762 172.662C90.6866 172.693 90.618 172.739 90.5603 172.796C90.5026 172.854 90.4568 172.923 90.4256 172.998C90.3944 173.074 90.3784 173.154 90.3784 173.236C90.3784 173.318 90.3944 173.398 90.4256 173.474C90.4568 173.549 90.5026 173.618 90.5603 173.676C90.618 173.733 90.6866 173.779 90.762 173.81C90.8374 173.842 90.9183 173.858 90.9999 173.857H100.715V172.615H90.9999Z" fill="#93C74B"/>
<path opacity="0.4" d="M102.272 172.615H100.715V173.857H102.272C102.437 173.857 102.595 173.792 102.712 173.675C102.828 173.559 102.894 173.401 102.894 173.236C102.894 173.071 102.828 172.913 102.712 172.797C102.595 172.68 102.437 172.615 102.272 172.615Z" fill="#A0D5FD"/>
<path d="M90.9999 175.515C90.9183 175.515 90.8374 175.531 90.762 175.562C90.6866 175.593 90.618 175.639 90.5603 175.697C90.5026 175.755 90.4568 175.823 90.4256 175.899C90.3944 175.974 90.3784 176.055 90.3784 176.137C90.3784 176.218 90.3944 176.299 90.4256 176.374C90.4568 176.45 90.5026 176.518 90.5603 176.576C90.618 176.634 90.6866 176.68 90.762 176.711C90.8374 176.742 90.9183 176.758 90.9999 176.758H99.6914V175.515H90.9999Z" fill="#93C74B"/>
<path opacity="0.4" d="M102.272 175.515H99.6931V176.758H102.272C102.437 176.758 102.595 176.693 102.712 176.576C102.828 176.459 102.894 176.301 102.894 176.137C102.894 176.055 102.878 175.974 102.846 175.899C102.815 175.823 102.769 175.755 102.712 175.697C102.654 175.639 102.585 175.594 102.51 175.562C102.435 175.531 102.354 175.515 102.272 175.515Z" fill="#A0D5FD"/>
<path opacity="0.4" d="M102.272 178.416H95.2935V179.659H102.272C102.437 179.659 102.595 179.593 102.711 179.476C102.828 179.36 102.893 179.202 102.893 179.037C102.893 178.955 102.877 178.875 102.846 178.799C102.815 178.724 102.769 178.655 102.711 178.598C102.654 178.54 102.585 178.494 102.51 178.463C102.434 178.432 102.354 178.416 102.272 178.416Z" fill="#A0D5FD"/>
<path d="M90.9999 178.416C90.9183 178.415 90.8374 178.431 90.762 178.463C90.6866 178.494 90.618 178.54 90.5603 178.597C90.5026 178.655 90.4568 178.724 90.4256 178.799C90.3944 178.875 90.3784 178.955 90.3784 179.037C90.3784 179.119 90.3944 179.2 90.4256 179.275C90.4568 179.35 90.5026 179.419 90.5603 179.477C90.618 179.534 90.6866 179.58 90.762 179.611C90.8374 179.643 90.9183 179.659 90.9999 179.659H95.2919V178.416H90.9999Z" fill="#93C74B"/>
<path d="M114.625 172.615C114.543 172.614 114.462 172.63 114.387 172.662C114.312 172.693 114.243 172.739 114.185 172.796C114.128 172.854 114.082 172.923 114.051 172.998C114.019 173.074 114.003 173.154 114.003 173.236C114.003 173.318 114.019 173.398 114.051 173.474C114.082 173.549 114.128 173.618 114.185 173.676C114.243 173.733 114.312 173.779 114.387 173.81C114.462 173.842 114.543 173.858 114.625 173.857H123.55V172.615H114.625Z" fill="#93C74B"/>
<path opacity="0.4" d="M125.895 172.615H123.55V173.858H125.897C125.979 173.858 126.06 173.842 126.135 173.81C126.21 173.779 126.279 173.733 126.337 173.676C126.395 173.618 126.44 173.549 126.472 173.474C126.503 173.399 126.519 173.318 126.519 173.236C126.519 173.154 126.503 173.073 126.471 172.998C126.44 172.922 126.394 172.853 126.336 172.796C126.278 172.738 126.209 172.692 126.134 172.661C126.058 172.63 125.977 172.614 125.895 172.615Z" fill="#A0D5FD"/>
<path d="M114.625 175.515C114.543 175.515 114.462 175.531 114.387 175.562C114.312 175.593 114.243 175.639 114.185 175.697C114.128 175.755 114.082 175.823 114.051 175.899C114.019 175.974 114.003 176.055 114.003 176.137C114.003 176.218 114.019 176.299 114.051 176.374C114.082 176.45 114.128 176.518 114.185 176.576C114.243 176.634 114.312 176.68 114.387 176.711C114.462 176.742 114.543 176.758 114.625 176.758H118.282V175.515H114.625Z" fill="#93C74B"/>
<path opacity="0.4" d="M125.895 175.515H118.282V176.758H125.895C125.977 176.758 126.058 176.742 126.133 176.711C126.208 176.68 126.277 176.634 126.335 176.576C126.393 176.518 126.438 176.45 126.47 176.374C126.501 176.299 126.517 176.218 126.517 176.137C126.517 176.055 126.501 175.974 126.47 175.899C126.438 175.823 126.393 175.755 126.335 175.697C126.277 175.639 126.208 175.593 126.133 175.562C126.058 175.531 125.977 175.515 125.895 175.515Z" fill="#A0D5FD"/>
<path opacity="0.4" d="M125.895 178.416H122.87V179.659H125.895C125.977 179.659 126.058 179.643 126.133 179.611C126.209 179.58 126.277 179.534 126.335 179.477C126.393 179.419 126.438 179.35 126.47 179.275C126.501 179.2 126.517 179.119 126.517 179.037C126.517 178.955 126.501 178.875 126.47 178.799C126.438 178.724 126.393 178.655 126.335 178.597C126.277 178.54 126.209 178.494 126.133 178.463C126.058 178.431 125.977 178.415 125.895 178.416Z" fill="#A0D5FD"/>
<path d="M114.625 178.416C114.543 178.415 114.462 178.431 114.387 178.463C114.312 178.494 114.243 178.54 114.185 178.597C114.128 178.655 114.082 178.724 114.051 178.799C114.019 178.875 114.003 178.955 114.003 179.037C114.003 179.119 114.019 179.2 114.051 179.275C114.082 179.35 114.128 179.419 114.185 179.477C114.243 179.534 114.312 179.58 114.387 179.611C114.462 179.643 114.543 179.659 114.625 179.659H122.87V178.416H114.625Z" fill="#93C74B"/>
<path d="M138.25 172.615C138.168 172.614 138.087 172.63 138.012 172.662C137.936 172.693 137.868 172.739 137.81 172.796C137.752 172.854 137.707 172.923 137.675 172.998C137.644 173.073 137.628 173.154 137.628 173.236C137.628 173.318 137.644 173.399 137.675 173.474C137.707 173.549 137.752 173.618 137.81 173.676C137.868 173.733 137.936 173.779 138.012 173.81C138.087 173.842 138.168 173.858 138.25 173.857H141.404V172.615H138.25Z" fill="#93C74B"/>
<path opacity="0.4" d="M149.519 172.615H141.403V173.857H149.519C149.6 173.858 149.681 173.842 149.757 173.81C149.832 173.779 149.901 173.733 149.958 173.676C150.016 173.618 150.062 173.549 150.093 173.474C150.124 173.399 150.141 173.318 150.141 173.236C150.141 173.154 150.124 173.073 150.093 172.998C150.062 172.923 150.016 172.854 149.958 172.796C149.901 172.739 149.832 172.693 149.757 172.662C149.681 172.63 149.6 172.614 149.519 172.615Z" fill="#A0D5FD"/>
<path d="M138.25 175.515C138.168 175.515 138.087 175.531 138.012 175.562C137.936 175.593 137.868 175.639 137.81 175.697C137.752 175.755 137.707 175.823 137.675 175.899C137.644 175.974 137.628 176.055 137.628 176.137C137.628 176.218 137.644 176.299 137.675 176.374C137.707 176.45 137.752 176.518 137.81 176.576C137.868 176.634 137.936 176.68 138.012 176.711C138.087 176.742 138.168 176.758 138.25 176.758H143.147V175.515H138.25Z" fill="#93C74B"/>
<path opacity="0.4" d="M149.519 175.515H143.146V176.758H149.519C149.6 176.758 149.681 176.742 149.757 176.711C149.832 176.68 149.901 176.634 149.958 176.576C150.016 176.518 150.062 176.45 150.093 176.374C150.124 176.299 150.141 176.218 150.141 176.137C150.141 176.055 150.124 175.974 150.093 175.899C150.062 175.823 150.016 175.755 149.958 175.697C149.901 175.639 149.832 175.593 149.757 175.562C149.681 175.531 149.6 175.515 149.519 175.515Z" fill="#A0D5FD"/>
<path opacity="0.4" d="M149.519 178.416H146.75V179.659H149.517C149.598 179.659 149.679 179.643 149.754 179.611C149.83 179.58 149.899 179.534 149.956 179.477C150.014 179.419 150.06 179.35 150.091 179.275C150.122 179.2 150.139 179.119 150.139 179.037C150.139 178.872 150.073 178.715 149.957 178.598C149.841 178.482 149.683 178.416 149.519 178.416Z" fill="#A0D5FD"/>
<path d="M138.25 178.416C138.168 178.415 138.087 178.431 138.012 178.463C137.936 178.494 137.868 178.54 137.81 178.597C137.752 178.655 137.707 178.724 137.675 178.799C137.644 178.875 137.628 178.955 137.628 179.037C137.628 179.119 137.644 179.2 137.675 179.275C137.707 179.35 137.752 179.419 137.81 179.477C137.868 179.534 137.936 179.58 138.012 179.611C138.087 179.643 138.168 179.659 138.25 179.659H146.75V178.416H138.25Z" fill="#93C74B"/>
<path d="M150.405 131.392C146.835 130.463 142.812 131.537 140.18 134.122C138.218 136.05 136.844 138.831 134.23 139.682C130.89 140.767 127.193 138.113 123.843 139.164C121.133 140.014 119.71 142.919 117.532 144.74C115.287 146.617 112.095 147.294 109.282 146.49C107.518 145.987 105.935 144.953 104.156 144.503C100.762 143.646 97.1164 145.078 94.4734 147.374C92.9169 148.724 91.6429 150.346 90.4939 152.065H150.405V131.392Z" fill="#93C74B"/>
<path d="M85.6 132.59C85.5998 133.883 85.155 135.136 84.3404 136.14C83.5257 137.143 82.3907 137.836 81.1257 138.102C79.8607 138.368 78.5428 138.191 77.393 137.6C76.2433 137.009 75.3316 136.041 74.811 134.858C74.2904 133.675 74.1926 132.349 74.5339 131.102C74.8752 129.855 75.6349 128.764 76.6856 128.011C77.7362 127.258 79.0139 126.889 80.3041 126.967C81.5944 127.044 82.8188 127.563 83.772 128.436C84.3493 128.963 84.8102 129.605 85.125 130.32C85.4398 131.035 85.6016 131.809 85.6 132.59Z" fill="#FDE81D"/>
<path d="M85.6 132.591C85.6016 133.696 85.2765 134.777 84.6655 135.699L80.1655 132.532L83.772 128.436C84.3488 128.963 84.8093 129.605 85.1241 130.321C85.4388 131.036 85.6009 131.809 85.6 132.591Z" fill="#19767B"/>
<path d="M85.6001 146.576C85.5993 147.989 85.067 149.35 84.1091 150.389C83.1511 151.428 81.8375 152.068 80.4291 152.183C79.0207 152.299 77.6206 151.88 76.5067 151.01C75.3927 150.141 74.6466 148.884 74.4163 147.49C74.1861 146.096 74.4886 144.666 75.2637 143.484C76.0389 142.303 77.2301 141.456 78.6007 141.112C79.9713 140.769 81.4211 140.953 82.6622 141.628C83.9033 142.304 84.8449 143.422 85.3001 144.759C85.499 145.344 85.6004 145.958 85.6001 146.576Z" fill="#FDE81D"/>
<path d="M85.3001 144.76L79.9651 146.576L82.1776 141.393C82.9048 141.704 83.5584 142.164 84.0963 142.744C84.6342 143.324 85.0443 144.011 85.3001 144.76Z" fill="#19767B"/>
<path d="M95.1605 141.464H93.49C92.9888 141.464 92.5825 141.87 92.5825 142.371V142.371C92.5825 142.873 92.9888 143.279 93.49 143.279H95.1605C95.6617 143.279 96.068 142.873 96.068 142.371V142.371C96.068 141.87 95.6617 141.464 95.1605 141.464Z" fill="#19767B"/>
<path d="M119.195 137.905H117.525C117.024 137.905 116.617 138.311 116.617 138.813V138.813C116.617 139.314 117.024 139.721 117.525 139.721H119.195C119.697 139.721 120.103 139.314 120.103 138.813V138.813C120.103 138.311 119.697 137.905 119.195 137.905Z" fill="#19767B"/>
<path d="M138.946 131.588H137.275C136.774 131.588 136.368 131.994 136.368 132.496V132.496C136.368 132.997 136.774 133.404 137.275 133.404H138.946C139.447 133.404 139.853 132.997 139.853 132.496V132.496C139.853 131.994 139.447 131.588 138.946 131.588Z" fill="#19767B"/>
<path d="M98.0285 154.098H92.3645V155.478H98.0285V154.098Z" fill="#93C74B"/>
<path d="M121.41 154.098H115.746V155.478H121.41V154.098Z" fill="#93C74B"/>
<path d="M144.791 154.098H139.127V155.478H144.791V154.098Z" fill="#93C74B"/>
<path d="M138.566 126.496C139.018 126.496 139.385 126.13 139.385 125.678C139.385 125.225 139.018 124.859 138.566 124.859C138.114 124.859 137.748 125.225 137.748 125.678C137.748 126.13 138.114 126.496 138.566 126.496Z" fill="#7FC7FD"/>
<path d="M143.993 126.496C144.445 126.496 144.811 126.13 144.811 125.678C144.811 125.225 144.445 124.859 143.993 124.859C143.541 124.859 143.174 125.225 143.174 125.678C143.174 126.13 143.541 126.496 143.993 126.496Z" fill="#7FC7FD"/>
<path d="M149.419 126.496C149.871 126.496 150.237 126.13 150.237 125.678C150.237 125.225 149.871 124.859 149.419 124.859C148.967 124.859 148.6 125.225 148.6 125.678C148.6 126.13 148.967 126.496 149.419 126.496Z" fill="#7FC7FD"/>
<path d="M120.642 170.152C123.923 170.152 126.583 167.492 126.583 164.211C126.583 160.93 123.923 158.271 120.642 158.271C117.362 158.271 114.702 160.93 114.702 164.211C114.702 167.492 117.362 170.152 120.642 170.152Z" fill="white" stroke="#93C74B" stroke-width="5.95" stroke-miterlimit="10"/>
<path d="M120.643 169.073C123.328 169.073 125.505 166.896 125.505 164.211C125.505 161.526 123.328 159.349 120.643 159.349C117.957 159.349 115.781 161.526 115.781 164.211C115.781 166.896 117.957 169.073 120.643 169.073Z" fill="#DAEEFD"/>
<path d="M122.5 165.307C122.504 165.553 122.459 165.798 122.368 166.026C122.276 166.255 122.14 166.463 121.967 166.639C121.795 166.815 121.589 166.954 121.361 167.049C121.134 167.144 120.89 167.193 120.644 167.193C120.397 167.193 120.154 167.144 119.926 167.049C119.699 166.954 119.493 166.815 119.32 166.639C119.148 166.463 119.012 166.255 118.92 166.026C118.829 165.798 118.784 165.553 118.788 165.307C118.788 164.281 120.644 161.554 120.644 161.554C120.644 161.554 122.5 164.281 122.5 165.307Z" fill="#75BEE9"/>
<path d="M73.0445 170.152C76.3254 170.152 78.985 167.492 78.985 164.211C78.985 160.93 76.3254 158.271 73.0445 158.271C69.7637 158.271 67.104 160.93 67.104 164.211C67.104 167.492 69.7637 170.152 73.0445 170.152Z" fill="#DAEEFD" stroke="#93C74B" stroke-width="5.95" stroke-miterlimit="10"/>
<path d="M73.0446 169.073C75.7298 169.073 77.9066 166.896 77.9066 164.211C77.9066 161.526 75.7298 159.349 73.0446 159.349C70.3594 159.349 68.1826 161.526 68.1826 164.211C68.1826 166.896 70.3594 169.073 73.0446 169.073Z" fill="white"/>
<path d="M74.2529 163.775C74.2179 163.789 74.1844 163.805 74.1529 163.822C74.1559 163.792 74.1579 163.762 74.1589 163.732C74.1894 162.774 73.1764 161.604 73.1764 161.604C73.1764 161.604 72.1144 162.708 72.0839 163.666C72.0815 163.75 72.0867 163.833 72.0994 163.916C72.0176 163.86 71.9301 163.812 71.8384 163.774C70.9524 163.408 69.8384 164.074 69.8384 164.074C69.8384 164.074 70.1609 165.329 71.0469 165.695C71.8739 166.036 72.8999 165.48 73.0324 165.405C73.0544 165.424 73.0669 165.434 73.0669 165.434L73.0869 165.42C73.2944 165.533 74.2599 166.02 75.0464 165.695C75.9324 165.329 76.2549 164.074 76.2549 164.074C76.2549 164.074 75.1389 163.409 74.2529 163.775Z" fill="#75BEE9"/>
<path d="M144.442 170.152C147.723 170.152 150.382 167.492 150.382 164.211C150.382 160.93 147.723 158.271 144.442 158.271C141.161 158.271 138.501 160.93 138.501 164.211C138.501 167.492 141.161 170.152 144.442 170.152Z" fill="white" stroke="#93C74B" stroke-width="5.95" stroke-miterlimit="10"/>
<path d="M144.442 169.073C147.127 169.073 149.304 166.896 149.304 164.211C149.304 161.526 147.127 159.349 144.442 159.349C141.757 159.349 139.58 161.526 139.58 164.211C139.58 166.896 141.757 169.073 144.442 169.073Z" fill="#DAEEFD"/>
<path d="M144.103 165.25V161.619C144.103 161.529 144.085 161.44 144.051 161.357C144.016 161.274 143.966 161.199 143.902 161.135C143.839 161.071 143.763 161.021 143.68 160.987C143.597 160.952 143.508 160.935 143.419 160.935C143.237 160.935 143.063 161.007 142.935 161.135C142.806 161.263 142.734 161.437 142.734 161.619V165.25C142.559 165.368 142.418 165.529 142.324 165.718C142.231 165.907 142.187 166.117 142.198 166.327C142.209 166.538 142.275 166.742 142.388 166.92C142.502 167.097 142.659 167.243 142.845 167.342C143.032 167.44 143.24 167.489 143.451 167.484C143.662 167.478 143.867 167.418 144.048 167.31C144.229 167.201 144.378 167.048 144.482 166.864C144.586 166.681 144.64 166.473 144.641 166.263C144.641 165.843 144.427 165.409 144.103 165.25Z" fill="white"/>
<path d="M146.455 162.69H145.124C144.995 162.69 144.891 162.794 144.891 162.923V163.025C144.891 163.153 144.995 163.258 145.124 163.258H146.455C146.583 163.258 146.688 163.153 146.688 163.025V162.923C146.688 162.794 146.583 162.69 146.455 162.69Z" fill="#6DBFFD"/>
<path d="M146.455 163.927H145.124C144.995 163.927 144.891 164.031 144.891 164.16V164.262C144.891 164.391 144.995 164.495 145.124 164.495H146.455C146.583 164.495 146.688 164.391 146.688 164.262V164.16C146.688 164.031 146.583 163.927 146.455 163.927Z" fill="#6DBFFD"/>
<path d="M143.7 165.62V164.12H143.133V165.62C142.976 165.686 142.848 165.803 142.768 165.953C142.689 166.102 142.664 166.275 142.697 166.441C142.731 166.607 142.821 166.757 142.952 166.864C143.083 166.971 143.247 167.03 143.416 167.03C143.586 167.03 143.75 166.971 143.881 166.864C144.012 166.757 144.102 166.607 144.135 166.441C144.169 166.275 144.144 166.102 144.064 165.953C143.985 165.803 143.856 165.686 143.7 165.62Z" fill="#52A756"/>
<path d="M143.7 162.112C143.702 162.074 143.696 162.036 143.682 162C143.668 161.964 143.648 161.931 143.621 161.904C143.595 161.876 143.563 161.854 143.528 161.839C143.493 161.824 143.455 161.816 143.416 161.816C143.378 161.816 143.34 161.824 143.305 161.839C143.27 161.854 143.238 161.876 143.211 161.904C143.185 161.931 143.164 161.964 143.151 162C143.137 162.036 143.131 162.074 143.133 162.112V164.119H143.7V162.112Z" fill="#8AC6E9"/>
<path d="M96.8436 170.152C100.124 170.152 102.784 167.492 102.784 164.211C102.784 160.93 100.124 158.271 96.8436 158.271C93.5627 158.271 90.9031 160.93 90.9031 164.211C90.9031 167.492 93.5627 170.152 96.8436 170.152Z" fill="white" stroke="#93C74B" stroke-width="5.95" stroke-miterlimit="10"/>
<path d="M96.8434 169.073C99.5287 169.073 101.705 166.896 101.705 164.211C101.705 161.526 99.5287 159.349 96.8434 159.349C94.1582 159.349 91.9814 161.526 91.9814 164.211C91.9814 166.896 94.1582 169.073 96.8434 169.073Z" fill="#DAEEFD"/>
<path d="M96.8435 165.523C97.5684 165.523 98.156 164.936 98.156 164.211C98.156 163.486 97.5684 162.898 96.8435 162.898C96.1186 162.898 95.531 163.486 95.531 164.211C95.531 164.936 96.1186 165.523 96.8435 165.523Z" fill="#FE4775"/>
<path d="M98.336 162.838L98.8115 162.362C98.94 162.234 98.7405 162.035 98.6115 162.162L98.1365 162.638C98.0085 162.767 98.2075 162.966 98.336 162.838Z" fill="#FE4775"/>
<path d="M97.4501 162.277L97.6241 161.627C97.6711 161.451 97.3996 161.377 97.3526 161.552L97.1786 162.202C97.1306 162.377 97.4001 162.45 97.4501 162.277Z" fill="#FE4775"/>
<path d="M96.1284 162.306C96.1754 162.481 96.4474 162.406 96.3999 162.231L96.2259 161.581C96.1794 161.406 95.9074 161.481 95.9544 161.656L96.1284 162.306Z" fill="#FE4775"/>
<path d="M95.2711 162.918C95.3996 163.047 95.5986 162.847 95.4711 162.718L94.9956 162.243C94.8671 162.115 94.6676 162.314 94.7956 162.443L95.2711 162.918Z" fill="#FE4775"/>
<path d="M94.1849 163.703L94.8349 163.877C95.0104 163.924 95.0849 163.652 94.9099 163.605L94.2599 163.431C94.0844 163.384 94.0094 163.656 94.1849 163.703Z" fill="#FE4775"/>
<path d="M94.8634 164.654L94.2134 164.828C94.0384 164.875 94.1134 165.147 94.2879 165.1L94.9379 164.926C95.1134 164.879 95.0394 164.607 94.8634 164.654Z" fill="#FE4775"/>
<path d="M95.35 165.584L94.8745 166.059C94.746 166.188 94.9455 166.387 95.0745 166.259L95.5495 165.784C95.679 165.655 95.48 165.456 95.35 165.584Z" fill="#FE4775"/>
<path d="M96.2385 166.145L96.0645 166.795C96.0175 166.97 96.289 167.045 96.336 166.87L96.51 166.22C96.557 166.045 96.285 165.97 96.2385 166.145Z" fill="#FE4775"/>
<path d="M97.5589 166.116C97.5119 165.941 97.2399 166.016 97.2869 166.191L97.4609 166.841C97.5079 167.016 97.7799 166.941 97.7329 166.766L97.5589 166.116Z" fill="#FE4775"/>
<path d="M98.4165 165.504C98.288 165.375 98.0885 165.575 98.2165 165.704L98.692 166.179C98.8205 166.308 99.0195 166.109 98.892 165.979L98.4165 165.504Z" fill="#FE4775"/>
<path d="M99.5025 164.719L98.8525 164.544C98.6775 164.497 98.6025 164.77 98.778 164.817L99.428 164.991C99.603 165.038 99.678 164.766 99.5025 164.719Z" fill="#FE4775"/>
<path d="M98.824 163.768L99.474 163.594C99.649 163.547 99.574 163.275 99.399 163.322L98.749 163.496C98.574 163.543 98.65 163.815 98.824 163.768Z" fill="#FE4775"/>
<path d="M72.2505 135.896H68.1845C67.7032 135.896 67.313 136.287 67.313 136.768C67.313 137.249 67.7032 137.639 68.1845 137.639H72.2505C72.7318 137.639 73.122 137.249 73.122 136.768C73.122 136.287 72.7318 135.896 72.2505 135.896Z" fill="#19767B"/>
<path d="M72.2505 150.161H68.1845C67.7032 150.161 67.313 150.551 67.313 151.032C67.313 151.513 67.7032 151.903 68.1845 151.903H72.2505C72.7318 151.903 73.122 151.513 73.122 151.032C73.122 150.551 72.7318 150.161 72.2505 150.161Z" fill="#19767B"/>
</svg>
