<?xml version="1.0" standalone="no"?>
<!DOCTYPE svg PUBLIC "-//W3C//DTD SVG 20010904//EN"
 "http://www.w3.org/TR/2001/REC-SVG-20010904/DTD/svg10.dtd">
<svg version="1.0" xmlns="http://www.w3.org/2000/svg"
 width="600.000000pt" height="300.000000pt" viewBox="0 0 600.000000 300.000000"
 preserveAspectRatio="xMidYMid meet">

<g transform="translate(0.000000,300.000000) scale(0.100000,-0.100000)"
fill="#000000" stroke="none">
<path d="M2443 2311 c-37 -33 -41 -60 -17 -99 19 -33 119 -96 136 -86 6 4 8 3
5 -3 -6 -9 62 -63 78 -63 3 0 19 -16 36 -35 17 -19 35 -35 40 -35 5 0 35 -28
67 -62 31 -34 69 -75 85 -91 15 -16 27 -30 27 -31 0 -2 20 -34 45 -72 25 -37
45 -73 45 -80 0 -6 8 -18 17 -25 15 -12 16 -12 10 4 -4 11 -3 16 3 12 6 -3 7
-17 4 -31 -5 -18 -3 -24 7 -22 7 2 15 -5 17 -16 2 -11 0 -16 -7 -12 -7 5 -7
-2 1 -20 l13 -28 8 44 c20 109 41 196 49 205 17 19 8 40 -17 41 -14 1 -25 -3
-25 -10 0 -6 -5 -4 -10 4 -5 8 -9 24 -9 35 1 18 2 18 6 2 3 -11 11 -16 19 -13
8 3 14 0 14 -6 0 -6 3 -8 6 -5 4 4 -6 26 -22 49 -26 38 -29 41 -32 21 -2 -13
-8 -23 -13 -23 -12 0 -11 7 1 30 11 21 11 20 -77 121 -24 28 -44 43 -47 36 -2
-7 -5 -1 -5 13 -1 20 -3 22 -11 10 -6 -9 -10 -10 -10 -3 0 12 -85 103 -96 103
-3 0 -17 9 -31 20 -14 11 -29 17 -34 14 -5 -3 -6 2 -3 10 4 10 1 16 -8 16 -7
0 -26 11 -41 25 -15 14 -27 21 -27 16 0 -6 -7 -8 -15 -5 -8 4 -13 9 -10 14 2
4 -7 12 -21 19 -33 15 -37 14 -30 -5 6 -14 4 -15 -9 -4 -13 10 -13 15 -3 21
18 11 5 20 -39 26 -32 4 -43 0 -70 -26z m482 -311 c3 -5 1 -10 -4 -10 -6 0
-11 5 -11 10 0 6 2 10 4 10 3 0 8 -4 11 -10z m62 -52 c9 -11 11 -18 5 -18 -7
0 -12 5 -12 10 0 6 -7 10 -16 8 -10 -2 -19 2 -21 8 -6 18 26 12 44 -8z m13
-53 c7 -8 8 -15 2 -15 -5 0 -15 7 -22 15 -7 8 -8 15 -2 15 5 0 15 -7 22 -15z
m-120 -35 c0 -5 -2 -10 -4 -10 -3 0 -8 5 -11 10 -3 6 -1 10 4 10 6 0 11 -4 11
-10z m78 -105 c-3 -3 -9 2 -12 12 -6 14 -5 15 5 6 7 -7 10 -15 7 -18z m22 -25
c0 -5 -4 -10 -10 -10 -5 0 -10 5 -10 10 0 6 5 10 10 10 6 0 10 -4 10 -10z"/>
<path d="M3014 1414 c-34 -19 -78 -52 -98 -75 l-37 -40 -47 18 c-73 28 -175
24 -243 -10 -52 -26 -119 -80 -119 -96 0 -5 24 -11 53 -15 55 -7 99 -14 447
-70 118 -19 325 -51 460 -72 258 -40 291 -51 321 -107 15 -27 15 -98 0 -126
-7 -12 -9 -21 -7 -21 9 0 171 104 174 112 2 5 8 8 12 8 5 0 38 18 72 40 35 22
100 64 145 93 45 28 83 55 83 58 0 13 -67 72 -104 91 -55 28 -140 34 -196 13
-25 -9 -52 -19 -61 -22 -11 -3 -32 11 -60 42 -86 93 -209 126 -326 86 l-63
-21 -39 42 c-22 24 -68 58 -104 76 -55 27 -74 32 -133 31 -58 -1 -79 -7 -130
-35z"/>
<path d="M2945 718 c21 -18 49 -40 61 -48 13 -8 65 -48 117 -87 109 -85 137
-94 187 -61 19 13 103 66 185 117 83 52 154 98 159 102 6 5 -156 9 -369 9
l-380 0 40 -32z"/>
</g>
</svg>
